<svg xmlns="http://www.w3.org/2000/svg" viewBox="0 0 278.35 278.35"><defs><style>.a{fill:none;stroke:#000;stroke-miterlimit:10;stroke-width:12.31px;}</style></defs><title>アートボード 1</title><path d="M263.17,139.17c0-7.1,6.37-13.12,15.18-15.21a138.91,138.91,0,0,0-4.75-24c-9,1.45-17.14-1.67-19.86-8.24s.86-14.57,8.21-19.87a141.09,141.09,0,0,0-13.62-20.33c-7.7,4.74-16.45,5-21.47,0s-4.77-13.77,0-21.47A140.27,140.27,0,0,0,206.5,16.4c-5.3,7.35-13.31,10.93-19.87,8.21s-9.69-10.91-8.24-19.86a139.1,139.1,0,0,0-24-4.75c-2.09,8.81-8.11,15.17-15.22,15.17S126.05,8.81,124,0a138.91,138.91,0,0,0-24,4.75c1.45,9-1.67,17.14-8.24,19.86s-14.57-.86-19.87-8.21A140.27,140.27,0,0,0,51.52,30c4.74,7.7,5,16.45,0,21.47s-13.77,4.77-21.47,0A140.27,140.27,0,0,0,16.4,71.85c7.35,5.3,10.93,13.31,8.21,19.87S13.7,101.41,4.75,100A138.91,138.91,0,0,0,0,124c8.81,2.09,15.17,8.11,15.17,15.21S8.81,152.3,0,154.39a139.1,139.1,0,0,0,4.75,24c9-1.45,17.14,1.67,19.86,8.24s-.86,14.57-8.21,19.87A140.27,140.27,0,0,0,30,226.83c7.7-4.74,16.45-5,21.47,0s4.77,13.77,0,21.47A141.09,141.09,0,0,0,71.85,262c5.3-7.35,13.31-10.93,19.87-8.21s9.69,10.91,8.24,19.86a138.91,138.91,0,0,0,24,4.75c2.09-8.81,8.11-15.18,15.21-15.18s13.13,6.37,15.22,15.18a139.1,139.1,0,0,0,24-4.75c-1.45-9,1.67-17.14,8.24-19.86s14.57.86,19.87,8.21a141.09,141.09,0,0,0,20.33-13.62c-4.74-7.7-5-16.45,0-21.47s13.77-4.77,21.47,0A141.09,141.09,0,0,0,262,206.5c-7.35-5.3-10.93-13.31-8.21-19.87s10.91-9.69,19.86-8.24a139.1,139.1,0,0,0,4.75-24C269.54,152.3,263.17,146.28,263.17,139.17Zm-124,107a107,107,0,1,1,107-107A107,107,0,0,1,139.17,246.17Z"/><path d="M50.46,122.61l6.49-.94-5.64-3.35.46-2.26,8.36,1.67-.34,1.73L57.5,119l-3.91-1,5.78,3.5-.24,1.19-6.68,1,4,.61,2.29.46-.35,1.72L50,124.86Z"/><path d="M60.31,111.37l-.94,2.94,1.5,1.09-.57,1.78-7.16-5.62.5-1.55,9.09-.45-.56,1.78Zm-2.15,2,.65-2-3.37,0Z"/><path d="M61.37,104.86l-.55,1.28,2.87,1.23L63,109l-7.85-3.36,1.25-2.91a4.84,4.84,0,0,1,.67-1.15,2.79,2.79,0,0,1,.84-.72,2.14,2.14,0,0,1,1-.25,2.73,2.73,0,0,1,1.11.23,3.6,3.6,0,0,1,.73.43,2.27,2.27,0,0,1,.49.54,2.13,2.13,0,0,1,.27.64,2.86,2.86,0,0,1,.1.73l3.93-.33.08,0-.74,1.73Zm-1.86.72.55-1.3a2.09,2.09,0,0,0,.16-.59,1.15,1.15,0,0,0-.07-.5,1.07,1.07,0,0,0-.26-.4,1.77,1.77,0,0,0-.44-.29,1.33,1.33,0,0,0-1,0,1.39,1.39,0,0,0-.73.83l-.56,1.3Z"/><path d="M66.91,100.45l-.8,1.57-7.6-3.87.79-1.57Z"/><path d="M71.14,93.16l-.91,1.5-6.58,0,4.81,2.9-.91,1.51-7.3-4.41.91-1.5,6.58,0-4.81-2.91.9-1.5Z"/><path d="M72,85.73l-2,2.72,1.84,1.36,2.35-3.2,1.13.84-3.38,4.61L65,87l3.38-4.59,1.15.84-2.34,3.18,1.64,1.21,2-2.72Z"/><path d="M79.75,79.84l-2.12,2.24.88,1.63-1.29,1.36-4-8.17,1.12-1.18,8.39,3.54-1.28,1.36Zm-2.82.91,1.46-1.54-3.06-1.42Z"/><path d="M88.41,74.32l-1.33,1.15-6.26-2,3.68,4.24-1.33,1.16-5.59-6.45,1.33-1.15,6.27,2L81.49,69l1.33-1.14Z"/><path d="M93.31,67.3a3.66,3.66,0,0,1,.45,1.14,2.83,2.83,0,0,1,0,1.16,3.22,3.22,0,0,1-.51,1.1,4.23,4.23,0,0,1-1,1,3.81,3.81,0,0,1-1.37.62,3,3,0,0,1-1.37,0,3.69,3.69,0,0,1-1.32-.65A5.47,5.47,0,0,1,87,70.39l-.33-.46a5.54,5.54,0,0,1-.78-1.53,3.79,3.79,0,0,1-.17-1.47,3,3,0,0,1,.44-1.31,3.65,3.65,0,0,1,1-1.09,4.34,4.34,0,0,1,1.28-.63,3.15,3.15,0,0,1,1.21-.09,3,3,0,0,1,1.1.39,4.17,4.17,0,0,1,.94.81l-1.43,1a2.78,2.78,0,0,0-.5-.48,1.38,1.38,0,0,0-.53-.23,1.18,1.18,0,0,0-.58.05,2.31,2.31,0,0,0-.66.34A1.5,1.5,0,0,0,87.29,67a3.62,3.62,0,0,0,.81,1.89l.33.47a6.57,6.57,0,0,0,.75.89,2.38,2.38,0,0,0,.73.5,1.25,1.25,0,0,0,.73.1,1.72,1.72,0,0,0,.75-.32,2.34,2.34,0,0,0,.53-.5,1.25,1.25,0,0,0,.25-.52,1.38,1.38,0,0,0,0-.57,2.14,2.14,0,0,0-.28-.63Z"/><path d="M101.78,65.66l-1.53.87-1.82-3.17-3,1.7,1.81,3.18-1.52.87L91.51,61.7,93,60.83l1.72,3,3-1.7-1.72-3,1.53-.88Z"/><path d="M107.71,58.49a5.26,5.26,0,0,1,.48,1.71,3.88,3.88,0,0,1-.14,1.5,3.32,3.32,0,0,1-.71,1.22,3.7,3.7,0,0,1-1.23.87,3.55,3.55,0,0,1-1.46.33,3.15,3.15,0,0,1-1.39-.29,3.78,3.78,0,0,1-1.22-.89,5.09,5.09,0,0,1-1-1.5l-.16-.34a5.2,5.2,0,0,1-.46-1.71,3.73,3.73,0,0,1,.14-1.51,3.17,3.17,0,0,1,.71-1.23,3.54,3.54,0,0,1,1.23-.86,3.66,3.66,0,0,1,1.46-.34,3.3,3.3,0,0,1,1.38.3,3.85,3.85,0,0,1,1.23.9,5.43,5.43,0,0,1,1,1.5Zm-1.78.37a3.6,3.6,0,0,0-1.27-1.67,1.57,1.57,0,0,0-1.53-.08,1.54,1.54,0,0,0-1,1.2,3.5,3.5,0,0,0,.39,2.06l.15.35a5.49,5.49,0,0,0,.6,1,2.64,2.64,0,0,0,.68.63,1.63,1.63,0,0,0,.75.25,1.75,1.75,0,0,0,.79-.16,1.54,1.54,0,0,0,1-1.2,3.78,3.78,0,0,0-.4-2.06Z"/><path d="M112.4,57.88l-1.33.44,1,3-1.67.56-2.7-8.09,3-1a5.23,5.23,0,0,1,1.31-.26,2.77,2.77,0,0,1,1.1.16,2.26,2.26,0,0,1,.84.56,2.64,2.64,0,0,1,.56,1,3,3,0,0,1,.17.83,2.38,2.38,0,0,1-.08.72,2.2,2.2,0,0,1-.3.64,2.75,2.75,0,0,1-.48.55l2.86,2.73,0,.07-1.78.6ZM110.62,57l1.34-.45a1.67,1.67,0,0,0,.55-.28,1.31,1.31,0,0,0,.33-.38,1.16,1.16,0,0,0,.12-.46,1.4,1.4,0,0,0-.08-.52,1.31,1.31,0,0,0-.63-.79,1.42,1.42,0,0,0-1.11,0l-1.33.44Z"/><path d="M168.5,59.7a1.19,1.19,0,0,0,.08-.4.79.79,0,0,0-.13-.39,2.06,2.06,0,0,0-.38-.45,6.89,6.89,0,0,0-.69-.58,9.74,9.74,0,0,1-.9-.76,4.21,4.21,0,0,1-.67-.83,2.46,2.46,0,0,1-.34-.9,2.23,2.23,0,0,1,.66-1.83,2.1,2.1,0,0,1,.86-.49,3,3,0,0,1,1.1-.13,4.64,4.64,0,0,1,1.26.26,4,4,0,0,1,1.15.62,3,3,0,0,1,.75.84,2.61,2.61,0,0,1,.32,1,2.49,2.49,0,0,1-.15,1.07l-1.65-.58a1.28,1.28,0,0,0,.08-.5,1,1,0,0,0-.11-.46,1.31,1.31,0,0,0-.33-.38,1.85,1.85,0,0,0-.56-.3,2.34,2.34,0,0,0-.59-.13,1.68,1.68,0,0,0-.47.06.87.87,0,0,0-.34.22.93.93,0,0,0-.21.33.83.83,0,0,0,.17.81,4.8,4.8,0,0,0,1,.92,7.31,7.31,0,0,1,1,.87,3.64,3.64,0,0,1,.64.85,2.25,2.25,0,0,1,.25.89,2.31,2.31,0,0,1-.14,1,2.14,2.14,0,0,1-.54.87,2,2,0,0,1-.84.49,2.85,2.85,0,0,1-1.07.11,4.46,4.46,0,0,1-1.26-.27,4.81,4.81,0,0,1-.77-.35,4.15,4.15,0,0,1-.68-.48,3.47,3.47,0,0,1-.55-.6,2.55,2.55,0,0,1-.35-.7,2.3,2.3,0,0,1-.13-.79,2.77,2.77,0,0,1,.16-.87l1.67.59a1.63,1.63,0,0,0-.11.66,1.15,1.15,0,0,0,.18.52,1.37,1.37,0,0,0,.42.41,2.63,2.63,0,0,0,.63.3,1.91,1.91,0,0,0,.58.13,1.33,1.33,0,0,0,.46,0,.93.93,0,0,0,.33-.21A.9.9,0,0,0,168.5,59.7Z"/><path d="M176.56,61.56l-3.07-1.39-.94,2.08,3.61,1.63-.59,1.29-5.21-2.36L173.88,55l5.2,2.35-.59,1.3-3.59-1.63-.84,1.85,3.07,1.39Z"/><path d="M181.39,66.38l-2.69-1.52-1.37,1.25-1.63-.92,7-5.87,1.42.8-1.42,9L181,68.2Zm-1.57-2.52,1.85,1,.64-3.31Z"/><path d="M190.49,72.59,188,70.74l-1.53,1.05L185,70.66l7.67-4.9,1.3,1-2.59,8.74-1.49-1.13Zm-1.22-2.7,1.7,1.28L192,68Z"/><path d="M191.84,75.89l5.76-6.29,1.93,1.77a4,4,0,0,1,1,1.28,3.72,3.72,0,0,1,.35,1.45,4,4,0,0,1-.28,1.49,4.81,4.81,0,0,1-.91,1.42l-.26.28a4.73,4.73,0,0,1-1.33,1,3.76,3.76,0,0,1-1.46.4,3.61,3.61,0,0,1-1.48-.22,4.3,4.3,0,0,1-1.37-.86Zm6.09-4.06L194.09,76l.63.57a1.86,1.86,0,0,0,1.63.56,3,3,0,0,0,1.73-1.08l.27-.29a3,3,0,0,0,.93-1.82,1.9,1.9,0,0,0-.71-1.56Z"/><path d="M201.1,82l6.06-2.88,1.31,1.45-8.31,3.54-1.24-1.36,4.33-7.93,1.31,1.45Z"/><path d="M208.57,88.67l-2-2.69-1.82,1.38,2.4,3.16-1.12.85-3.46-4.55,6.79-5.16,3.45,4.54-1.13.86-2.39-3.14-1.62,1.23,2,2.68Z"/><path d="M210.16,98l-.93-1.49,3-5.88-4.76,3-.93-1.49,7.23-4.52.93,1.49-3,5.89,4.77-3,.93,1.49Z"/><path d="M220,101.71l-1.17-2.33-6.36,3.17-.78-1.57,6.36-3.17-1.16-2.31,1.28-.64,3.1,6.22Z"/><path d="M224.28,108.56l-5.24,2a3.37,3.37,0,0,1-1.31.25,2.82,2.82,0,0,1-1.13-.29,3,3,0,0,1-.91-.76,4.25,4.25,0,0,1-.65-1.15,3.89,3.89,0,0,1-.3-1.29,2.89,2.89,0,0,1,.16-1.18,2.53,2.53,0,0,1,.64-1,3.2,3.2,0,0,1,1.12-.7l5.25-2,.64,1.63-5.25,2.05a1.59,1.59,0,0,0-1,.82,1.54,1.54,0,0,0,0,1.17,1.61,1.61,0,0,0,.76.9,1.69,1.69,0,0,0,1.29-.08l5.24-2Z"/><path d="M220.59,115l-.38-1.35-3,.85-.48-1.69,8.2-2.33.87,3a5,5,0,0,1,.2,1.31,2.86,2.86,0,0,1-.2,1.09,2.23,2.23,0,0,1-.61.82,2.47,2.47,0,0,1-1,.51,2.9,2.9,0,0,1-.83.13,2.09,2.09,0,0,1-.72-.11A2,2,0,0,1,222,117a3.21,3.21,0,0,1-.54-.51l-2.85,2.73-.07,0-.52-1.81Zm1-1.74.39,1.36a1.93,1.93,0,0,0,.25.56,1.22,1.22,0,0,0,.37.35,1.18,1.18,0,0,0,.45.14,1.66,1.66,0,0,0,.53-.06,1.32,1.32,0,0,0,.82-.59,1.47,1.47,0,0,0,0-1.11L224,112.6Z"/><path d="M223.31,124.43l-.64-3.32-2.25.44.75,3.89-1.38.26-1.09-5.61,8.38-1.62,1.08,5.61-1.4.27-.74-3.88-2,.38.64,3.32Z"/><path d="M139.17,54.17a18.47,18.47,0,1,0,18.47,18.47A18.47,18.47,0,0,0,139.17,54.17Zm0,26.16a7.7,7.7,0,1,1,7.7-7.69A7.7,7.7,0,0,1,139.17,80.33Z"/><rect x="133.02" y="83.41" width="13.85" height="130.77" rx="4.92" ry="4.92"/><rect x="135.33" y="91.87" width="10.77" height="43.08" rx="2.49" ry="2.49" transform="translate(27.31 254.12) rotate(-90)"/><path class="a" d="M62.9,152.64a78.48,78.48,0,0,0,152.55,0"/><polygon points="55.27 171.25 53.8 134.45 80.43 162.13 66.06 161.74 55.27 171.25"/><polygon points="223.09 171.25 224.55 134.45 197.92 162.13 212.29 161.74 223.09 171.25"/></svg>