<svg xmlns="http://www.w3.org/2000/svg" viewBox="0 0 69 68.8"><defs><style>.a{fill:#ddd;}</style></defs><title>アートボード 1</title><path class="a" d="M32,0A34.3,34.3,0,0,0,12.76,7.62L32,26.86Z"/><path class="a" d="M32,33.94,9.11,11.05A34.85,34.85,0,0,0,3.8,18.66L32,46.86Z"/><path class="a" d="M37,0V25.45L55.45,7A34.31,34.31,0,0,0,37,0Z"/><path class="a" d="M37,53.52V68.8A34.49,34.49,0,0,0,67.18,23.34Z"/><path class="a" d="M32,53.94,1.72,23.65A34.48,34.48,0,0,0,32,68.8Z"/><path class="a" d="M59.2,10.32,37,32.52V46.45L65.06,18.39A34.87,34.87,0,0,0,59.2,10.32Z"/></svg>