<svg xmlns="http://www.w3.org/2000/svg" xmlns:xlink="http://www.w3.org/1999/xlink" viewBox="0 0 169.07 107.13"><defs><style>.a{fill:none;}.b{clip-path:url(#a);}.c{fill:#dcdcdc;}</style><clipPath id="a"><rect class="a" width="151.07" height="107.13"/></clipPath></defs><title>アートボード 1</title><g class="b"><path class="c" d="M46,23.4c0-12.14-10.3-22-23-22S0,11.26,0,23.4C0,34.22,8.17,43.19,18.93,45l-1.35,62.11H28.42L27.07,45C37.82,43.19,46,34.22,46,23.4"/><path class="c" d="M106.2,32.39v-18s0-10.15-9-12.5V32.39h-8L88,1.42H82.46l-1.26,31h-8v-30c-3.66,1.34-8,4.5-8,12v18s0,13,13,13h3.43l-1.34,61.74H91.12L89.78,45.39H93.2s13,0,13-13"/><path class="c" d="M150.24,52.47V2.76c0-4-3.7-2.47-3.7-2.47l-9.76,4a6.64,6.64,0,0,0-3.89,5.52l-2.65,54a5.52,5.52,0,0,0,3.58,5.32l7,2.46-.6,35.53h10.83Z"/></g></svg>