<svg xmlns="http://www.w3.org/2000/svg" xmlns:xlink="http://www.w3.org/1999/xlink" viewBox="0 0 149.85 104.39" style="background: #222"><defs><style>.a,.d{fill:none;}.b{fill:#fff;}.c{clip-path:url(#a);}.d{stroke:#fff;stroke-miterlimit:10;stroke-width:1.72px;}</style><clipPath id="a"><rect class="a" width="149.85" height="104.39"/></clipPath></defs><title>アートボード 1</title><path class="b" d="M9.59,87.29c0-4.64,3.66-8,8.65-8s8.65,3.38,8.65,8-3.65,8-8.65,8S9.59,91.93,9.59,87.29Zm12.09,0c0-2.39-1.53-3.83-3.44-3.83S14.8,84.9,14.8,87.29s1.54,3.83,3.44,3.83S21.68,89.68,21.68,87.29Z"/><path class="b" d="M43.89,79.62V95H39.64l-5.83-7v7h-5V79.62H33l5.82,7v-7Z"/><path class="b" d="M59.14,91.06V95H46.39V79.62H58.85v3.9H51.47v1.8H58V89H51.47v2Z"/><path class="b" d="M82.07,85.41c0,3.55-2.72,5.78-7,5.78H72.87V95H67.7V79.62h7.38C79.35,79.62,82.07,81.86,82.07,85.41Zm-5.21,0c0-1.12-.68-1.8-2.11-1.8H72.87V87.2h1.88C76.18,87.2,76.86,86.52,76.86,85.41Z"/><path class="b" d="M83.36,87.29c0-4.64,3.66-8,8.65-8s8.66,3.38,8.66,8-3.66,8-8.66,8S83.36,91.93,83.36,87.29Zm12.09,0c0-2.39-1.53-3.83-3.44-3.83s-3.44,1.44-3.44,3.83,1.54,3.83,3.44,3.83S95.45,89.68,95.45,87.29Z"/><path class="b" d="M102.55,79.62h5.17V95h-5.17Z"/><path class="b" d="M125.33,79.62V95h-4.25l-5.83-7v7h-5V79.62h4.25l5.83,7v-7Z"/><path class="b" d="M131.16,83.63h-4.5v-4h14.16v4h-4.49V95h-5.17Z"/><g class="c"><path class="b" d="M74.29,60.05A26.1,26.1,0,1,1,100.39,34a26.09,26.09,0,0,1-26.1,26.1M104.54,34c0-1.73,1.55-3.2,3.7-3.71a34.34,34.34,0,0,0-1.16-5.86c-2.18.36-4.18-.4-4.84-2s.21-3.56,2-4.85a34,34,0,0,0-3.32-5c-1.88,1.16-4,1.22-5.24,0s-1.16-3.36,0-5.24a34.87,34.87,0,0,0-5-3.32c-1.29,1.79-3.24,2.67-4.84,2s-2.37-2.66-2-4.84A34.34,34.34,0,0,0,78,0c-.51,2.15-2,3.7-3.71,3.7S71.09,2.15,70.58,0a34.34,34.34,0,0,0-5.86,1.16c.36,2.18-.4,4.18-2,4.84s-3.55-.21-4.84-2a34.87,34.87,0,0,0-5,3.32c1.15,1.88,1.21,4,0,5.24s-3.36,1.17-5.24,0a33.25,33.25,0,0,0-3.32,5c1.79,1.29,2.67,3.24,2,4.85s-2.66,2.36-4.84,2a33.4,33.4,0,0,0-1.16,5.86c2.15.51,3.7,2,3.7,3.71s-1.55,3.2-3.7,3.71a33.4,33.4,0,0,0,1.16,5.86c2.18-.36,4.18.41,4.84,2s-.21,3.55-2,4.84a32.75,32.75,0,0,0,3.32,5c1.88-1.15,4-1.21,5.24,0s1.16,3.36,0,5.24a34,34,0,0,0,5,3.32c1.29-1.79,3.24-2.67,4.84-2s2.37,2.66,2,4.84a34.34,34.34,0,0,0,5.86,1.16c.51-2.15,2-3.7,3.71-3.7s3.2,1.55,3.71,3.7a34.34,34.34,0,0,0,5.86-1.16c-.36-2.18.4-4.18,2-4.84s3.55.21,4.84,2a34,34,0,0,0,5-3.32c-1.15-1.88-1.22-4,0-5.24s3.36-1.16,5.24,0a33.51,33.51,0,0,0,3.32-5c-1.79-1.29-2.67-3.24-2-4.84s2.66-2.37,4.84-2a34.34,34.34,0,0,0,1.16-5.86c-2.15-.51-3.7-2-3.7-3.71"/></g><polygon class="b" points="52.65 29.91 54.23 29.68 52.85 28.86 52.97 28.31 55.01 28.72 54.92 29.14 54.37 29.03 53.41 28.8 54.82 29.65 54.76 29.94 53.13 30.18 54.1 30.34 54.66 30.45 54.58 30.87 52.54 30.46 52.65 29.91"/><path class="b" d="M53.86,27.19l.83,0-.17.5Zm-.44-.35-.12.37,1.75,1.38.14-.44-.37-.27.23-.71h.45l.14-.43Z"/><g class="c"><path class="b" d="M54.85,25.76l.14-.32a.83.83,0,0,0,0-.15.25.25,0,0,0,0-.12.15.15,0,0,0-.06-.09.26.26,0,0,0-.11-.07.32.32,0,0,0-.25,0,.35.35,0,0,0-.17.2l-.14.32Zm.46-.18-.14.31.7.3-.17.4-1.91-.82.31-.71a.94.94,0,0,1,.16-.28.6.6,0,0,1,.21-.18.48.48,0,0,1,.24-.06.74.74,0,0,1,.27.06.77.77,0,0,1,.18.1l.12.13a.52.52,0,0,1,.06.16,1.13,1.13,0,0,1,0,.18l1-.08h0l-.18.42Z"/></g><rect class="b" x="55.42" y="23.18" width="0.43" height="2.08" transform="translate(8.81 62.82) rotate(-63.03)"/><polygon class="b" points="57.69 22.73 57.47 23.09 55.87 23.1 57.04 23.81 56.82 24.17 55.04 23.1 55.26 22.73 56.87 22.73 55.69 22.02 55.91 21.65 57.69 22.73"/><polygon class="b" points="57.9 20.91 57.41 21.58 57.86 21.91 58.43 21.13 58.71 21.33 57.88 22.46 56.2 21.23 57.03 20.1 57.31 20.31 56.74 21.09 57.14 21.38 57.63 20.71 57.9 20.91"/><path class="b" d="M59.1,19.7l.36-.38L58.72,19Zm.69-.22-.51.54.21.4-.31.33-1-2,.27-.29,2.05.86-.32.34Z"/><polygon class="b" points="61.91 18.13 61.58 18.41 60.05 17.93 60.95 18.96 60.63 19.24 59.26 17.67 59.59 17.39 61.12 17.88 60.22 16.84 60.54 16.56 61.91 18.13"/><g class="c"><path class="b" d="M63.1,16.42a.75.75,0,0,1,.11.28.66.66,0,0,1,0,.28.67.67,0,0,1-.13.27,1.09,1.09,0,0,1-.24.24.79.79,0,0,1-.34.15.62.62,0,0,1-.33,0,.85.85,0,0,1-.32-.15,1.08,1.08,0,0,1-.29-.31l-.08-.11a1.45,1.45,0,0,1-.19-.37.77.77,0,0,1,0-.36.71.71,0,0,1,.1-.32.91.91,0,0,1,.25-.27,1.25,1.25,0,0,1,.31-.15.63.63,0,0,1,.3,0,.72.72,0,0,1,.27.09,1.07,1.07,0,0,1,.23.2l-.35.25a.68.68,0,0,0-.12-.12.24.24,0,0,0-.13-.05A.23.23,0,0,0,62,16a.4.4,0,0,0-.16.08.37.37,0,0,0-.18.31,1,1,0,0,0,.2.47l.08.11a1.42,1.42,0,0,0,.18.22.63.63,0,0,0,.18.12.37.37,0,0,0,.18,0,.65.65,0,0,0,.31-.19.49.49,0,0,0,.06-.13.33.33,0,0,0,0-.14,1,1,0,0,0-.07-.15Z"/></g><polygon class="b" points="65.17 16.02 64.79 16.23 64.35 15.46 63.63 15.87 64.07 16.64 63.7 16.86 62.66 15.05 63.03 14.84 63.45 15.57 64.18 15.16 63.76 14.42 64.13 14.21 65.17 16.02"/><g class="c"><path class="b" d="M66.18,14.36a.87.87,0,0,0-.31-.41.38.38,0,0,0-.37,0,.37.37,0,0,0-.24.29.92.92,0,0,0,.09.51l0,.08a1.83,1.83,0,0,0,.15.25.8.8,0,0,0,.16.16.42.42,0,0,0,.19.06.46.46,0,0,0,.19,0,.38.38,0,0,0,.23-.29.84.84,0,0,0-.09-.51Zm.44-.09a1.31,1.31,0,0,1,.11.42,1.05,1.05,0,0,1,0,.36.92.92,0,0,1-.18.3.81.81,0,0,1-.3.21.89.89,0,0,1-.35.08.8.8,0,0,1-.34-.07.89.89,0,0,1-.3-.22A1.17,1.17,0,0,1,65,15l0-.08a1.5,1.5,0,0,1-.12-.42.88.88,0,0,1,0-.37.75.75,0,0,1,.17-.3.81.81,0,0,1,.3-.21.94.94,0,0,1,.36-.08.8.8,0,0,1,.34.07,1.15,1.15,0,0,1,.3.22,1.59,1.59,0,0,1,.23.36Z"/><path class="b" d="M67.32,13.9l.33-.11a.4.4,0,0,0,.13-.07.22.22,0,0,0,.08-.09.42.42,0,0,0,0-.12.3.3,0,0,0,0-.12.3.3,0,0,0-.15-.19.32.32,0,0,0-.27,0l-.32.11Zm.44.22-.33.11.24.72-.4.14-.66-2,.73-.24a1.32,1.32,0,0,1,.32-.07.77.77,0,0,1,.27,0,.48.48,0,0,1,.2.14.57.57,0,0,1,.14.24.79.79,0,0,1,0,.2.52.52,0,0,1,0,.18.41.41,0,0,1-.07.15.53.53,0,0,1-.12.14l.7.66v0l-.44.15Z"/><path class="b" d="M81.44,14.56a.15.15,0,0,0,0-.09.19.19,0,0,0,0-.1l-.09-.11-.17-.14L81,13.93a.74.74,0,0,1-.16-.2.45.45,0,0,1-.08-.22.41.41,0,0,1,0-.24.57.57,0,0,1,.13-.21.51.51,0,0,1,.22-.11.75.75,0,0,1,.26,0,1.16,1.16,0,0,1,.31.07,1.06,1.06,0,0,1,.28.15.67.67,0,0,1,.18.2.57.57,0,0,1,.08.25.58.58,0,0,1,0,.26l-.41-.14a.3.3,0,0,0,0-.13.26.26,0,0,0,0-.11.22.22,0,0,0-.08-.09.51.51,0,0,0-.28-.1.2.2,0,0,0-.11,0l-.08.05a.18.18,0,0,0,0,.08.19.19,0,0,0,0,.2,1.16,1.16,0,0,0,.25.23l.24.21a.69.69,0,0,1,.15.21.58.58,0,0,1,.07.21.62.62,0,0,1,0,.23.54.54,0,0,1-.13.22.72.72,0,0,1-.21.12.71.71,0,0,1-.26,0A.89.89,0,0,1,81,15a1.22,1.22,0,0,1-.36-.21.86.86,0,0,1-.13-.14.56.56,0,0,1-.09-.17.63.63,0,0,1,0-.19.6.6,0,0,1,0-.22l.41.15a.5.5,0,0,0,0,.16.42.42,0,0,0,0,.12.38.38,0,0,0,.11.11l.15.07.14,0h.11a.16.16,0,0,0,.08,0,.16.16,0,0,0,0-.09"/></g><polygon class="b" points="83.41 15.02 82.66 14.68 82.43 15.19 83.31 15.58 83.17 15.9 81.9 15.32 82.76 13.43 84.02 14 83.88 14.32 83 13.92 82.8 14.37 83.55 14.71 83.41 15.02"/><path class="b" d="M84.21,15.58l.6-.55-.15.8Zm-1,.32.4.23.33-.31.66.37-.09.45.4.22.34-2.19-.34-.2Z"/><path class="b" d="M86.51,17.05l.42.31.26-.78Zm.3.66-.6-.45-.37.25-.37-.27L87.34,16l.32.24L87,18.41l-.36-.27Z"/><g class="c"><path class="b" d="M88.62,17.52l-.93,1,.15.14a.49.49,0,0,0,.4.14.77.77,0,0,0,.42-.27l.06-.07a.7.7,0,0,0,.23-.44.46.46,0,0,0-.17-.38Zm-1.48,1L88.54,17l.47.43a.87.87,0,0,1,.24.31.9.9,0,0,1,.08.36.76.76,0,0,1-.06.36,1.24,1.24,0,0,1-.23.35l-.06.07a1.31,1.31,0,0,1-.33.25.88.88,0,0,1-.35.1,1.13,1.13,0,0,1-.36-.06.84.84,0,0,1-.33-.21Z"/></g><polygon class="b" points="89.4 20 90.87 19.3 91.19 19.65 89.17 20.51 88.86 20.18 89.92 18.25 90.24 18.6 89.4 20"/><polygon class="b" points="91.22 21.63 90.72 20.97 90.28 21.31 90.86 22.08 90.59 22.29 89.74 21.18 91.4 19.92 92.24 21.03 91.96 21.24 91.38 20.47 90.99 20.77 91.48 21.43 91.22 21.63"/><polygon class="b" points="91.61 23.9 91.38 23.53 92.1 22.1 90.94 22.83 90.71 22.46 92.47 21.36 92.7 21.72 91.98 23.16 93.15 22.43 93.37 22.8 91.61 23.9"/><polygon class="b" points="93.26 23.3 93.54 23.86 91.99 24.64 92.18 25.02 93.73 24.24 94.01 24.81 94.32 24.66 93.56 23.14 93.26 23.3"/><g class="c"><path class="b" d="M95.05,26.48l-1.28.5a1,1,0,0,1-.32.06.6.6,0,0,1-.27-.07.63.63,0,0,1-.22-.18,1,1,0,0,1-.16-.28,1,1,0,0,1-.08-.32.92.92,0,0,1,0-.29.6.6,0,0,1,.16-.23.62.62,0,0,1,.27-.17l1.28-.5.16.4-1.28.49a.38.38,0,0,0-.24.2.33.33,0,0,0,0,.29.37.37,0,0,0,.18.22.41.41,0,0,0,.32,0l1.28-.5Z"/><path class="b" d="M94.39,27.64l.1.33a.3.3,0,0,0,.06.14.34.34,0,0,0,.09.08l.11,0,.13,0a.3.3,0,0,0,.2-.14.4.4,0,0,0,0-.27l-.1-.33Zm-.24.42-.09-.33-.73.21-.12-.41,2-.57.21.74a1.39,1.39,0,0,1,0,.33.75.75,0,0,1,0,.26.48.48,0,0,1-.15.2.55.55,0,0,1-.24.13.82.82,0,0,1-.21,0,.47.47,0,0,1-.17,0,.53.53,0,0,1-.15-.08.49.49,0,0,1-.13-.12l-.7.66h0l-.12-.44Z"/></g><polygon class="b" points="93.69 29.29 93.95 30.66 94.29 30.6 94.11 29.65 94.66 29.55 94.81 30.35 95.14 30.29 94.99 29.48 95.48 29.39 95.66 30.33 96 30.27 95.73 28.9 93.69 29.29"/><g class="c"><path class="b" d="M74.29,19.6a1.88,1.88,0,1,1,1.88-1.88,1.88,1.88,0,0,1-1.88,1.88m0-6.38a4.5,4.5,0,1,0,4.5,4.5,4.5,4.5,0,0,0-4.5-4.5"/><path class="b" d="M75,52.25H74a1.2,1.2,0,0,1-1.2-1.2V21.55a1.2,1.2,0,0,1,1.2-1.2h1a1.2,1.2,0,0,1,1.2,1.2v29.5a1.2,1.2,0,0,1-1.2,1.2"/><path class="b" d="M79.92,27v1.41a.61.61,0,0,1-.61.61H70a.61.61,0,0,1-.61-.61V27a.61.61,0,0,1,.61-.61h9.29a.61.61,0,0,1,.61.61"/><path class="d" d="M55.06,37.08a19.7,19.7,0,0,0,38.46,0"/></g><polygon class="b" points="53.82 41.77 53.46 32.8 59.96 39.55 56.45 39.45 53.82 41.77"/><polygon class="b" points="94.76 41.77 95.12 32.8 88.62 39.55 92.13 39.45 94.76 41.77"/></svg>